<?xml version="1.0" encoding="iso-8859-1"?>
<!-- Generator: Adobe Illustrator 19.0.0, SVG Export Plug-In . SVG Version: 6.00 Build 0)  -->
<svg version="1.1" id="Layer_1" xmlns="http://www.w3.org/2000/svg" xmlns:xlink="http://www.w3.org/1999/xlink" x="0px" y="0px"
	 viewBox="0 0 512 512" style="enable-background:new 0 0 512 512;" xml:space="preserve">
<path style="fill:#FFFFFF;" d="M256.008,504c-136.968,0-248-111.04-247.992-248.008c0-65.768,26.128-128.848,72.632-175.352
	c97.072-96.624,254.104-96.256,350.72,0.816c96.304,96.752,96.304,253.144,0,349.904C384.968,478.024,321.816,504.176,256.008,504z"
	/>
<path d="M256.008,16c132.552,0,240,107.456,240,240c0,63.648-25.288,124.696-70.296,169.704
	c-94.136,93.312-246.096,92.648-339.408-1.48c-92.736-93.552-92.736-244.368,0-337.928C131.208,41.136,192.32,15.824,256.008,16
	 M256.008,0C114.624,0,0,114.608,0,255.992S114.608,512,255.992,512S512,397.392,512,256.008
	c0-67.896-26.968-133.016-74.976-181.024C389.064,26.896,323.92-0.088,256.008,0z"/>
<g>
	
		<rect x="210.295" y="210.26" transform="matrix(0.7071 -0.7071 0.7071 0.7071 -106.0179 256.0005)" style="fill:#E21B1B;" width="91.431" height="91.431"/>
	
		<rect x="35.735" y="35.733" transform="matrix(0.7071 -0.7071 0.7071 0.7071 -33.7362 81.45)" style="fill:#E21B1B;" width="91.431" height="91.431"/>
	
		<rect x="384.832" y="384.885" transform="matrix(0.7071 -0.7071 0.7071 0.7071 -178.3762 430.5633)" style="fill:#E21B1B;" width="91.431" height="91.431"/>
	
		<rect x="384.838" y="35.697" transform="matrix(0.7071 -0.7071 0.7071 0.7071 68.5384 328.2924)" style="fill:#E21B1B;" width="91.431" height="91.431"/>
	
		<rect x="35.792" y="384.902" transform="matrix(0.7071 -0.7071 0.7071 0.7071 -280.6193 183.7594)" style="fill:#E21B1B;" width="91.431" height="91.431"/>
</g>
<g>
</g>
<g>
</g>
<g>
</g>
<g>
</g>
<g>
</g>
<g>
</g>
<g>
</g>
<g>
</g>
<g>
</g>
<g>
</g>
<g>
</g>
<g>
</g>
<g>
</g>
<g>
</g>
<g>
</g>
</svg>
